<svg id="Layer_1" data-name="Layer 1" xmlns="http://www.w3.org/2000/svg" viewBox="0 0 40 38"><defs><style>.cls-1{opacity:.2}.cls-2{fill:#231f20}.cls-3{fill:#fff}.cls-4{fill:none;stroke:#000;stroke-miterlimit:10}</style></defs><title>zoecodelogo2</title><g id="_Group_" data-name="&lt;Group&gt;"><g class="cls-1"><path d="M44 43.38c0 .37-.42.53-.81.48a1.08 1.08 0 0 1-.27 0Q24.77 44.57 6.6 45a.67.67 0 0 1-.6-.23c-.29 0-.57-.2-.58-.48Q5 38 5 31.66a.47.47 0 0 1 .32-.42.63.63 0 0 1 .68-.45L41.69 30a.69.69 0 0 1 .57.22.58.58 0 0 1 .5.46Q43.63 37 44 43.38zM38.5 43l4.07-.14Q42.21 37 41.41 31l-18.12.4-3.63.08-13.26.33q0 6.09.41 12.16 5.87-.13 11.73-.31 8.87-.24 17.73-.55z" transform="translate(-5 -7)"/><path d="M42.57 42.9l-4.07.1v-1c1.12 0 1.12-1 0-1-.42 0-.63.25-.63.51h-1a.59.59 0 0 0-.63-.43c-.83 0-.83 1 0 1v1q-8.87.31-17.73.55v-1l8.93-.36c.45 0 .67-.28.67-.54h1.15c0 .25.23.51.67.51h1.39c.46 0 .7-.22.7-.52a.63.63 0 0 0-.7-.51h-1.39a.84.84 0 0 0-.29.05l-.39-1c.84 0 .84-1 0-1-.42 0-.63.25-.63.51l-1.05.09c0-.26-.27-.51-.83-.51s-.68.32-.63.6h-.77c0-.26-.28-.52-.84-.52-.84 0-.84 1 0 1v1l-2.79.11v-1c.83 0 .83-1 0-1-.47 0-.68.33-.63.61l-1 .09c0-.25-.28-.51-.84-.51a.74.74 0 0 0-.38.1l-.46-.86c.47 0 .68-.33.62-.61l1-.07a.59.59 0 0 0 .63.42c.56 0 .84-.26.84-.51l1.12-.07c0 .26.28.52.83.52a.56.56 0 0 0 .63-.52h1c0 .26.21.51.63.51.84 0 .84-1 0-1a.74.74 0 0 0-.48.16l-.64-.9c.84 0 .84-1 0-1l.28-.83a1.11 1.11 0 0 0 .28 0c.84 0 .84-1 0-1l.22-.71a.63.63 0 0 0 .31 0l.85-.06c.36 0 .72-.22.7-.51a.64.64 0 0 0-.7-.52l-.85.06c-.37 0-.72.22-.7.52H24a.62.62 0 0 0-.65-.51v-.81L41.41 31q.8 6 1.16 11.9zM41 42c.84 0 .84-1 0-1-1.13 0-1.13 1 0 1zm-.12-7.95c0-.27-.32-.52-.7-.51h-1.26c-.38 0-.7.23-.7.51a.64.64 0 0 0 .7.52h1.26c.36-.01.68-.22.68-.51zm-.7 5.73c.9 0 .9-1 0-1s-2.06 0-3.08.1-.9 1.08 0 1 2.03-.09 3.06-.09zm.64-7.5a.64.64 0 0 0-.7-.52l-1.26.07c-.38 0-.7.22-.7.51a.63.63 0 0 0 .7.52c.42 0 .84-.06 1.26-.07s.68-.22.68-.5zm-.93 5.6c.9 0 .9-1 0-1h-2c-.9 0-.9 1 0 1zm0-1.61c.84 0 .84-1 0-1s-.89 1.01-.02 1.01zm-2.52.06c.84 0 .84-1 0-1s-.86 1.01-.02 1.01zM36.4 33c.37 0 .71-.24.7-.51s-.31-.5-.7-.51a6.62 6.62 0 0 0-.77 0c-.36 0-.71.22-.69.51a.62.62 0 0 0 .69.51zm-.17 1.73c1.12 0 1.12-1 0-1-.83-.08-.83.95 0 .95zm-.83 3.45c.83 0 .83-1 0-1s-.84.95 0 .95zm-.56-1.68c.83 0 .83-1 0-1s-.84.95 0 .95zm-.28 3.5c.84 0 .84-1 0-1s-.84 1 0 1zm-.84-5.25c.84 0 .84-1 0-1s-.84.99 0 .99zm0 7.43c.84 0 .84-1 0-1s-.84.99 0 .99zM33.29 33c.37 0 .6-.38.49-.63a.79.79 0 0 0-.86-.36l-.75.06c-.37 0-.72.23-.7.51a.63.63 0 0 0 .7.51 10.35 10.35 0 0 0 1.12-.09zm-.41 5.25c.84 0 .84-1 0-1s-.88.99 0 .99zm-.56-1.71c.84 0 .84-1 0-1s-.84.99 0 .99zM32 40.05c.84 0 .84-1 0-1-1.08-.05-1.08 1 0 1zm-1.12-5.16c.84 0 .84-1 0-1s-.79 1 .04 1zM30.34 33a.49.49 0 0 0 .21-.37.64.64 0 0 0-.7-.51l-.74.06a.81.81 0 0 0-.49.15.47.47 0 0 0-.21.36.64.64 0 0 0 .7.51h.74a1 1 0 0 0 .49-.2zm0 5.43c.83 0 .83-1 0-1s-.81.98.03.98zm-.56-1.73c.83 0 .83-1 0-1s-.78.98.03.98zm-2-1.68c1.12 0 1.12-1 0-1-.78-.02-.78.98.07.98zm0 3.5c.84 0 .84-1 0-1s-.78.98.07.98zm-.55-1.73c.83 0 .83-1 0-1-1.05-.04-1.05.98.07.98z" transform="translate(-5 -7)"/><path d="M41 41c.84 0 .84 1 0 1-1.13 0-1.13-1 0-1zm-.84-7.45c.38 0 .7.24.7.51s-.32.5-.7.51H38.9a.64.64 0 0 1-.7-.52c0-.28.32-.5.7-.51zm0 5.21c.9 0 .9 1 0 1s-2.06 0-3.08.09-.89-1 0-1 2.05-.08 3.08-.09zm-.06-6.99a.64.64 0 0 1 .7.52c0 .28-.32.49-.7.51s-.84 0-1.26.07a.63.63 0 0 1-.7-.52c0-.29.32-.48.7-.51zm-.23 5.09c.9 0 .9 1 0 1h-2c-.9 0-.9-1 0-1zm0-1.61c.84 0 .84 1 0 1s-.87-1 0-1z" transform="translate(-5 -7)"/><path d="M35 0L.35 23.88 3.9 0H35z"/><path d="M38.47 41c1.12 0 1.12 1 0 1-.42 0-.63-.25-.63-.51s.21-.49.63-.49z" transform="translate(-5 -7)"/><path d="M38.47 42v1l-2.23.07v-1c.47 0 .68-.32.63-.6h1c-.03.29.18.53.6.53zm-1.12-6.69c.84 0 .84 1 0 1s-.84-1 0-1zm-.25-2.87c0 .27-.33.53-.7.51h-.77a.62.62 0 0 1-.69-.51c0-.29.33-.49.69-.51a6.62 6.62 0 0 1 .77 0c.39.01.68.22.7.51z" transform="translate(-5 -7)"/><path d="M36.86 41.52c0 .28-.16.6-.63.6-.83 0-.83-1 0-1a.59.59 0 0 1 .63.4zm-.63-7.87c1.12 0 1.12 1 0 1-.83.03-.83-1 0-1zm-.83 3.45c.83 0 .83 1 0 1s-.84-1 0-1zm-.56-1.68c.83 0 .83 1 0 1s-.84-1 0-1zM34.56 39c.84 0 .84 1 0 1s-.84-1 0-1zm-.84-5.28c.84 0 .84 1 0 1s-.84-1 0-1zm0 7.42c.84 0 .84 1 0 1s-.84-1 0-1zm.06-8.78c.11.25-.12.59-.49.63a10.35 10.35 0 0 1-1.12.09.63.63 0 0 1-.7-.51c0-.28.33-.5.7-.51l.75-.06a.79.79 0 0 1 .86.36zm-.9 4.85c.84 0 .84 1 0 1s-.88-1 0-1zm-.56-1.7c.84 0 .84 1 0 1s-.84-1 0-1zM32 39c.84 0 .84 1 0 1-1.08.05-1.08-1 0-1zm-.68 2.17a.63.63 0 0 1 .7.51c0 .3-.33.48-.7.52s-.92 0-1.39 0-.67-.26-.67-.51a.51.51 0 0 1 .38-.47.84.84 0 0 1 .29-.05c.47.05.93.04 1.39 0zm-.4-7.3c.84 0 .84 1 0 1s-.83-1 0-1zm-.37-1.26a.49.49 0 0 1-.21.37 1 1 0 0 1-.49.15h-.74a.64.64 0 0 1-.7-.51.47.47 0 0 1 .21-.36.81.81 0 0 1 .49-.15l.74-.06a.64.64 0 0 1 .7.56zm-.18 4.77c.83 0 .83 1 0 1s-.84-1 0-1zm-.56-1.72c.83 0 .83 1 0 1s-.81-1 0-1z" transform="translate(-5 -7)"/><path d="M29.25 40.24l.39 1a.51.51 0 0 0-.38.47h-1.15c0-.26-.22-.5-.67-.49h-.66v-1c.56 0 .83-.26.83-.51l1.05-.09c-.04.38.17.62.59.62z" transform="translate(-5 -7)"/><path d="M29.25 39.22c.84 0 .84 1 0 1-.42 0-.63-.25-.63-.51s.21-.49.63-.49zM27.85 34c1.12 0 1.12 1 0 1-.85 0-.85-1 0-1zm0 3.47c.84 0 .84 1 0 1s-.85-1 0-1zm-.41 3.82c.45 0 .67.23.67.49s-.22.52-.67.54l-8.93.36c-.9 0-.9-1 0-1h.72l2.52-.1 2.79-.11 2.24-.09zm-.14-5.54c.83 0 .83 1 0 1-1.12.02-1.12-1 0-1zm-.16-3.04c0 .29-.34.48-.7.51l-.85.06a.63.63 0 0 1-.31 0 .61.61 0 0 1-.39-.47c0-.3.33-.48.7-.52l.85-.06a.64.64 0 0 1 .7.48zm-.4 6.6c.56 0 .83.25.83.51s-.27.51-.83.51a.59.59 0 0 1-.63-.42c-.05-.28.15-.6.63-.6z" transform="translate(-5 -7)"/><path d="M26.74 40.33v1l-2.24.09v-1c.56 0 .84-.26.84-.51h.77a.59.59 0 0 0 .63.42zm-1.12-2.8c.84 0 .84 1 0 1-.42 0-.63-.25-.63-.51a.51.51 0 0 1 .15-.36.74.74 0 0 1 .48-.13z" transform="translate(-5 -7)"/><path d="M25.28 33.24l-.22.71c-.73 0-.83.79-.28 1l-.28.83c-.84 0-.84 1 0 1l.64.9a.51.51 0 0 0-.15.36h-1c0-.26-.21-.51-.63-.51s-.83.25-.83.51l-1.12.07c0-.26-.28-.52-.84-.52s-.68.33-.63.61l-1 .07a.58.58 0 0 0-.62-.42c-1.12 0-1.12 1 0 1l.46.86c-.43.25-.3.93.38.93v.9h-.72c-.9 0-.9 1.07 0 1v1q-5.86.17-11.73.31-.33-5.95-.31-12.04l13.26-.29v.8h-.88c-.37 0-.72.23-.7.51a.65.65 0 0 0 .7.52h.67v.83c-.84 0-.84 1 0 1v.69c-1.12 0-1.12 1 0 1 .42 0 .63-.26.63-.51h1c0 .26.28.52.84.52.81 0 .83-1 .06-1l.07-.7h.15c.83 0 .83-1 0-1l.05-.83a.55.55 0 0 0 .18 0h.77c.36 0 .7-.22.69-.51h.93a.61.61 0 0 0 .46.4zm-8 3.75c.84 0 .84-1 0-1-1.16.01-1.16 1.01-.05 1.01zm-1-3.59c.37 0 .72-.23.7-.51a.64.64 0 0 0-.7-.51h-.68c-.37 0-.72.23-.7.51a.64.64 0 0 0 .7.51zm.41 1.9c.83 0 .83-1 0-1s-.85 1-.01 1zm0 5.48c.83 0 .83-1 0-1s-.85 1-.01 1zM16 42.84c.36 0 .72-.23.7-.51a.64.64 0 0 0-.7-.51h-.74c-.36 0-.71.23-.69.51a.62.62 0 0 0 .69.51zM15.84 39c.84 0 .84-1 0-1s-.84 1 0 1zm-1.12-1.92c.84 0 .84-1 0-1s-.84.99 0 .99zm-.56 3.76c.84 0 .84-1 0-1s-.84.99 0 .99zm-.56-5.48c1.12 0 1.12-1 0-1-.84-.04-.84.99 0 .99zm-.6-1.89c.37 0 .72-.23.7-.52a.65.65 0 0 0-.7-.51h-.79c-.37 0-.72.22-.7.51a.63.63 0 0 0 .7.51zm.32 5.53c.84 0 .84-1 0-1s-.84 1 0 1zM13 42.84c.84 0 .84-1 0-1s-.8 1 0 1zm-.56-5.72c.84 0 .84-1 0-1s-.79 1 .04 1zm-.82 4c.89-.06.9-1.09 0-1-1.25.08-2.5.13-3.76.13-.9 0-.9 1 0 1 1.3-.03 2.55-.08 3.8-.16zm-.85-5.68c.84 0 .84-1 0-1s-.77.97.04.97zm0 7.55c.84 0 .84-1 0-1S10 43 10.81 43zm-.06-3.76c.89 0 .9-1.07 0-1l-2.82.11c-.9 0-.9 1.06 0 1zm-1.37-5.67c.36 0 .71-.23.69-.51a.62.62 0 0 0-.69-.52h-1c-.37 0-.72.23-.7.52a.64.64 0 0 0 .7.51zm.5 3.81c.89 0 .9-1 0-1L8 36.4c-.89 0-.89 1.06 0 1zm-1.55-1.74c.84 0 .84-1 0-1s-.84 1 0 1zm0 7.46c.84 0 .84-1 0-1s-.84 1 0 1z" transform="translate(-5 -7)"/><path d="M25.06 34c.84 0 .84 1 0 1a1.11 1.11 0 0 1-.28 0c-.55-.26-.45-1 .28-1zm-.56 5.41c.56 0 .84.26.84.52s-.28.51-.84.51c-.84 0-.84-1.03 0-1.03zm0-3.64c.84 0 .84 1 0 1s-.84-1 0-1zm-.5-3c0 .29-.33.48-.69.51h-.77a.55.55 0 0 1-.18 0 .62.62 0 0 1-.52-.5c0-.29.34-.49.7-.51h.77a.62.62 0 0 1 .65.51zm-.62 4.81c.42 0 .63.25.63.51a.56.56 0 0 1-.63.52c-.55 0-.83-.26-.83-.52s.28-.51.83-.51z" transform="translate(-5 -7)"/><path d="M23.29 31.44v.81h-.77c-.36 0-.71.22-.7.51a.62.62 0 0 0 .52.5l-.05.83c-.79 0-.84.89-.15 1l-.07.7H22c-.56 0-.84.26-.84.51h-1c0-.26-.21-.51-.63-.51v-.69c.84 0 .84-1 0-1v-.83h.21c.37 0 .72-.23.7-.51a.63.63 0 0 0-.67-.51v-.8z" transform="translate(-5 -7)"/><path d="M22.27 34.13c.83 0 .83 1 0 1h-.15c-.69-.13-.64-1 .15-1zm-.22 1.71c.77 0 .75 1-.06 1-.56 0-.84-.26-.84-.52s.28-.51.84-.51zm-.34 3.66c.83 0 .83 1 0 1a.59.59 0 0 1-.63-.42c-.08-.25.16-.58.63-.58z" transform="translate(-5 -7)"/><path d="M21.71 40.53v1l-2.52.1v-.9c.56 0 .84-.26.84-.52l1-.09a.59.59 0 0 0 .68.41zm-1.12-2.89c.56 0 .84.26.84.52s-.28.51-.84.51a.59.59 0 0 1-.63-.42c-.05-.25.16-.61.63-.61zm-.24-4.81c0 .28-.33.5-.7.51h-.88a.65.65 0 0 1-.7-.52c0-.28.33-.5.7-.51h.88a.63.63 0 0 1 .7.52zm-.88 1.34c.84 0 .84 1 0 1s-.84-1 0-1zm0 1.71c.42 0 .63.25.63.51s-.21.51-.63.51c-1.12 0-1.12-1.02 0-1.02z" transform="translate(-5 -7)"/><path d="M19.19 39.69c.56 0 .84.26.84.51s-.28.52-.84.52-.81-.68-.38-.93a.74.74 0 0 1 .38-.1zM19 38.32c.06.28-.15.61-.62.61-1.12 0-1.12-1 0-1a.58.58 0 0 1 .62.39zM17.23 36c.84 0 .84 1 0 1-1.11 0-1.11-1 0-1zM17 32.89c0 .28-.33.51-.7.51h-.7a.64.64 0 0 1-.7-.51c0-.28.33-.51.7-.51h.67a.64.64 0 0 1 .73.51zm-.32 1.39c.83 0 .83 1 0 1s-.84-1 0-1zm0 5.48c.83 0 .83 1 0 1s-.84-1 0-1zm.03 2.57c0 .28-.34.51-.7.51h-.74a.62.62 0 0 1-.69-.51c0-.28.33-.51.69-.51H16a.64.64 0 0 1 .71.51zM15.84 38c.84 0 .84 1 0 1s-.84-1 0-1zm-1.12-1.95c.84 0 .84 1 0 1s-.84-1 0-1zm-.56 3.75c.84 0 .84 1 0 1s-.84-1 0-1zm-.56-5.48c1.12 0 1.12 1 0 1-.84.03-.84-1 0-1zm.14-1.32c0 .29-.33.51-.7.52h-.79a.63.63 0 0 1-.7-.51c0-.29.33-.5.7-.51h.79a.65.65 0 0 1 .7.5zm-.42 5c.84 0 .84 1 0 1s-.84-1 0-1zM13 41.81c.84 0 .84 1 0 1s-.8-1 0-1zm-.52-5.72c.84 0 .84 1 0 1s-.83-1 0-1zm-.82 3.97c.9-.06.89 1 0 1-1.25.08-2.5.13-3.76.13-.9 0-.9-1 0-1 1.26 0 2.51-.05 3.76-.13zm-.85-5.67c.84 0 .84 1 0 1s-.81-1 0-1zm0 7.55c.84 0 .84 1 0 1s-.81-1 0-1zm-.06-3.76c.9 0 .89 1 0 1l-2.82.12c-.9 0-.9-1 0-1zM10 33.05c0 .28-.33.5-.69.51h-1a.64.64 0 0 1-.7-.51c0-.29.33-.51.7-.52h1a.62.62 0 0 1 .69.52zm-.16 3.3c.9 0 .89 1 0 1L8 37.43c-.89 0-.89-1 0-1zM8.29 34.6c.84 0 .84 1 0 1s-.84-1 0-1zm0 7.47c.84 0 .84 1 0 1s-.84-1 0-1z" transform="translate(-5 -7)"/></g><path class="cls-2" d="M45 43.38c0 .37-.42.53-.81.48a1.08 1.08 0 0 1-.27 0Q25.77 44.57 7.6 45a.67.67 0 0 1-.6-.23c-.29 0-.57-.2-.58-.48Q6 38 6 31.66a.47.47 0 0 1 .32-.42.63.63 0 0 1 .68-.45L42.69 30a.69.69 0 0 1 .57.22.58.58 0 0 1 .5.46Q44.63 37 45 43.38zM39.5 43l4.07-.14Q43.21 37 42.41 31l-18.12.4-3.63.08-13.26.33q0 6.09.41 12.16 5.87-.13 11.73-.31 8.87-.24 17.73-.55z" transform="translate(-5 -7)"/><path class="cls-3" d="M43.57 42.9l-4.07.1v-1c1.12 0 1.12-1 0-1-.42 0-.63.25-.63.51h-1a.59.59 0 0 0-.63-.43c-.83 0-.83 1 0 1v1q-8.87.31-17.73.55v-1l8.93-.36c.45 0 .67-.28.67-.54h1.15c0 .25.23.51.67.51h1.39c.46 0 .7-.22.7-.52a.63.63 0 0 0-.7-.51h-1.39a.84.84 0 0 0-.29.05l-.39-1c.84 0 .84-1 0-1-.42 0-.63.25-.63.51l-1.05.09c0-.26-.27-.51-.83-.51s-.68.32-.63.6h-.77c0-.26-.28-.52-.84-.52-.84 0-.84 1 0 1v1l-2.79.11v-1c.83 0 .83-1 0-1-.47 0-.68.33-.63.61l-1 .09c0-.25-.28-.51-.84-.51a.74.74 0 0 0-.38.1l-.46-.86c.47 0 .68-.33.62-.61l1-.07a.59.59 0 0 0 .63.42c.56 0 .84-.26.84-.51l1.12-.07c0 .26.28.52.83.52a.56.56 0 0 0 .63-.52h1c0 .26.21.51.63.51.84 0 .84-1 0-1a.74.74 0 0 0-.48.16l-.64-.9c.84 0 .84-1 0-1l.28-.83a1.11 1.11 0 0 0 .28 0c.84 0 .84-1 0-1l.22-.71a.63.63 0 0 0 .31 0l.85-.06c.36 0 .72-.22.7-.51a.64.64 0 0 0-.7-.52l-.85.06c-.37 0-.72.22-.7.52H25a.62.62 0 0 0-.65-.51v-.81L42.41 31q.8 6 1.16 11.9zM42 42c.84 0 .84-1 0-1-1.13 0-1.13 1 0 1zm-.12-7.95c0-.27-.32-.52-.7-.51h-1.26c-.38 0-.7.23-.7.51a.64.64 0 0 0 .7.52h1.26c.36-.01.68-.22.68-.51zm-.7 5.73c.9 0 .9-1 0-1s-2.06 0-3.08.1-.9 1.08 0 1 2.03-.09 3.06-.09zm.64-7.5a.64.64 0 0 0-.7-.52l-1.26.07c-.38 0-.7.22-.7.51a.63.63 0 0 0 .7.52c.42 0 .84-.06 1.26-.07s.68-.22.68-.5zm-.93 5.6c.9 0 .9-1 0-1h-2c-.9 0-.9 1 0 1zm0-1.61c.84 0 .84-1 0-1s-.89 1.01-.02 1.01zm-2.52.06c.84 0 .84-1 0-1s-.86 1.01-.02 1.01zM37.4 33c.37 0 .71-.24.7-.51s-.31-.5-.7-.51a6.62 6.62 0 0 0-.77 0c-.36 0-.71.22-.69.51a.62.62 0 0 0 .69.51zm-.17 1.73c1.12 0 1.12-1 0-1-.83-.08-.83.95 0 .95zm-.83 3.45c.83 0 .83-1 0-1s-.84.95 0 .95zm-.56-1.68c.83 0 .83-1 0-1s-.84.95 0 .95zm-.28 3.5c.84 0 .84-1 0-1s-.84 1 0 1zm-.84-5.25c.84 0 .84-1 0-1s-.84.99 0 .99zm0 7.43c.84 0 .84-1 0-1s-.84.99 0 .99zM34.29 33c.37 0 .6-.38.49-.63a.79.79 0 0 0-.86-.36l-.75.06c-.37 0-.72.23-.7.51a.63.63 0 0 0 .7.51 10.35 10.35 0 0 0 1.12-.09zm-.41 5.25c.84 0 .84-1 0-1s-.88.99 0 .99zm-.56-1.71c.84 0 .84-1 0-1s-.84.99 0 .99zM33 40.05c.84 0 .84-1 0-1-1.08-.05-1.08 1 0 1zm-1.12-5.16c.84 0 .84-1 0-1s-.79 1 .04 1zM31.34 33a.49.49 0 0 0 .21-.37.64.64 0 0 0-.7-.51l-.74.06a.81.81 0 0 0-.49.15.47.47 0 0 0-.21.36.64.64 0 0 0 .7.51h.74a1 1 0 0 0 .49-.2zm0 5.43c.83 0 .83-1 0-1s-.81.98.03.98zm-.56-1.73c.83 0 .83-1 0-1s-.78.98.03.98zm-2-1.68c1.12 0 1.12-1 0-1-.78-.02-.78.98.07.98zm0 3.5c.84 0 .84-1 0-1s-.78.98.07.98zm-.55-1.73c.83 0 .83-1 0-1-1.05-.04-1.05.98.07.98z" transform="translate(-5 -7)"/><path class="cls-2" d="M42 41c.84 0 .84 1 0 1-1.13 0-1.13-1 0-1zm-.84-7.45c.38 0 .7.24.7.51s-.32.5-.7.51H39.9a.64.64 0 0 1-.7-.52c0-.28.32-.5.7-.51zm0 5.21c.9 0 .9 1 0 1s-2.06 0-3.08.09-.89-1 0-1 2.05-.08 3.08-.09zm-.06-6.99a.64.64 0 0 1 .7.52c0 .28-.32.49-.7.51s-.84 0-1.26.07a.63.63 0 0 1-.7-.52c0-.29.32-.48.7-.51zm-.23 5.09c.9 0 .9 1 0 1h-2c-.9 0-.9-1 0-1zm0-1.61c.84 0 .84 1 0 1s-.87-1 0-1z" transform="translate(-5 -7)"/><path class="cls-2" d="M36 0L1.35 23.88 4.9 0H36z"/><path class="cls-2" d="M39.47 41c1.12 0 1.12 1 0 1-.42 0-.63-.25-.63-.51s.21-.49.63-.49z" transform="translate(-5 -7)"/><path class="cls-3" d="M39.47 42v1l-2.23.07v-1c.47 0 .68-.32.63-.6h1c-.03.29.18.53.6.53z" transform="translate(-5 -7)"/><path class="cls-2" d="M38.35 35.31c.84 0 .84 1 0 1s-.84-1 0-1zm-.25-2.87c0 .27-.33.53-.7.51h-.77a.62.62 0 0 1-.69-.51c0-.29.33-.49.69-.51a6.62 6.62 0 0 1 .77 0c.39.01.68.22.7.51zm-.24 9.08c0 .28-.16.6-.63.6-.83 0-.83-1 0-1a.59.59 0 0 1 .63.4zm-.63-7.87c1.12 0 1.12 1 0 1-.83.03-.83-1 0-1zm-.83 3.45c.83 0 .83 1 0 1s-.84-1 0-1zm-.56-1.68c.83 0 .83 1 0 1s-.84-1 0-1zM35.56 39c.84 0 .84 1 0 1s-.84-1 0-1zm-.84-5.28c.84 0 .84 1 0 1s-.84-1 0-1zm0 7.42c.84 0 .84 1 0 1s-.84-1 0-1zm.06-8.78c.11.25-.12.59-.49.63a10.35 10.35 0 0 1-1.12.09.63.63 0 0 1-.7-.51c0-.28.33-.5.7-.51l.75-.06a.79.79 0 0 1 .86.36zm-.9 4.85c.84 0 .84 1 0 1s-.88-1 0-1zm-.56-1.7c.84 0 .84 1 0 1s-.84-1 0-1zM33 39c.84 0 .84 1 0 1-1.08.05-1.08-1 0-1zm-.68 2.17a.63.63 0 0 1 .7.51c0 .3-.33.48-.7.52s-.92 0-1.39 0-.67-.26-.67-.51a.51.51 0 0 1 .38-.47.84.84 0 0 1 .29-.05c.47.05.93.04 1.39 0zm-.4-7.3c.84 0 .84 1 0 1s-.83-1 0-1zm-.37-1.26a.49.49 0 0 1-.21.37 1 1 0 0 1-.49.15h-.74a.64.64 0 0 1-.7-.51.47.47 0 0 1 .21-.36.81.81 0 0 1 .49-.15l.74-.06a.64.64 0 0 1 .7.56zm-.18 4.77c.83 0 .83 1 0 1s-.84-1 0-1zm-.56-1.72c.83 0 .83 1 0 1s-.81-1 0-1z" transform="translate(-5 -7)"/><path class="cls-3" d="M30.25 40.24l.39 1a.51.51 0 0 0-.38.47h-1.15c0-.26-.22-.5-.67-.49h-.66v-1c.56 0 .83-.26.83-.51l1.05-.09c-.04.38.17.62.59.62z" transform="translate(-5 -7)"/><path class="cls-2" d="M30.25 39.22c.84 0 .84 1 0 1-.42 0-.63-.25-.63-.51s.21-.49.63-.49zM28.85 34c1.12 0 1.12 1 0 1-.85 0-.85-1 0-1zm0 3.47c.84 0 .84 1 0 1s-.85-1 0-1zm-.41 3.82c.45 0 .67.23.67.49s-.22.52-.67.54l-8.93.36c-.9 0-.9-1 0-1h.72l2.52-.1 2.79-.11 2.24-.09zm-.14-5.54c.83 0 .83 1 0 1-1.12.02-1.12-1 0-1zm-.16-3.04c0 .29-.34.48-.7.51l-.85.06a.63.63 0 0 1-.31 0 .61.61 0 0 1-.39-.47c0-.3.33-.48.7-.52l.85-.06a.64.64 0 0 1 .7.48zm-.4 6.6c.56 0 .83.25.83.51s-.27.51-.83.51a.59.59 0 0 1-.63-.42c-.05-.28.15-.6.63-.6z" transform="translate(-5 -7)"/><path class="cls-3" d="M27.74 40.33v1l-2.24.09v-1c.56 0 .84-.26.84-.51h.77a.59.59 0 0 0 .63.42z" transform="translate(-5 -7)"/><path class="cls-2" d="M26.62 37.53c.84 0 .84 1 0 1-.42 0-.63-.25-.63-.51a.51.51 0 0 1 .15-.36.74.74 0 0 1 .48-.13z" transform="translate(-5 -7)"/><path class="cls-3" d="M26.28 33.24l-.22.71c-.73 0-.83.79-.28 1l-.28.83c-.84 0-.84 1 0 1l.64.9a.51.51 0 0 0-.15.36h-1c0-.26-.21-.51-.63-.51s-.83.25-.83.51l-1.12.07c0-.26-.28-.52-.84-.52s-.68.33-.63.61l-1 .07a.58.58 0 0 0-.62-.42c-1.12 0-1.12 1 0 1l.46.86c-.43.25-.3.93.38.93v.9h-.72c-.9 0-.9 1.07 0 1v1q-5.86.17-11.73.31-.33-5.95-.31-12.04l13.26-.29v.8h-.88c-.37 0-.72.23-.7.51a.65.65 0 0 0 .7.52h.67v.83c-.84 0-.84 1 0 1v.69c-1.12 0-1.12 1 0 1 .42 0 .63-.26.63-.51h1c0 .26.28.52.84.52.81 0 .83-1 .06-1l.07-.7h.15c.83 0 .83-1 0-1l.05-.83a.55.55 0 0 0 .18 0h.77c.36 0 .7-.22.69-.51h.93a.61.61 0 0 0 .46.4zm-8 3.75c.84 0 .84-1 0-1-1.16.01-1.16 1.01-.05 1.01zm-1-3.59c.37 0 .72-.23.7-.51a.64.64 0 0 0-.7-.51h-.68c-.37 0-.72.23-.7.51a.64.64 0 0 0 .7.51zm.41 1.9c.83 0 .83-1 0-1s-.85 1-.01 1zm0 5.48c.83 0 .83-1 0-1s-.85 1-.01 1zM17 42.84c.36 0 .72-.23.7-.51a.64.64 0 0 0-.7-.51h-.74c-.36 0-.71.23-.69.51a.62.62 0 0 0 .69.51zM16.84 39c.84 0 .84-1 0-1s-.84 1 0 1zm-1.12-1.92c.84 0 .84-1 0-1s-.84.99 0 .99zm-.56 3.76c.84 0 .84-1 0-1s-.84.99 0 .99zm-.56-5.48c1.12 0 1.12-1 0-1-.84-.04-.84.99 0 .99zm-.6-1.89c.37 0 .72-.23.7-.52a.65.65 0 0 0-.7-.51h-.79c-.37 0-.72.22-.7.51a.63.63 0 0 0 .7.51zm.32 5.53c.84 0 .84-1 0-1s-.84 1 0 1zM14 42.84c.84 0 .84-1 0-1s-.8 1 0 1zm-.56-5.72c.84 0 .84-1 0-1s-.79 1 .04 1zm-.82 4c.89-.06.9-1.09 0-1-1.25.08-2.5.13-3.76.13-.9 0-.9 1 0 1 1.3-.03 2.55-.08 3.8-.16zm-.85-5.68c.84 0 .84-1 0-1s-.77.97.04.97zm0 7.55c.84 0 .84-1 0-1S11 43 11.81 43zm-.06-3.76c.89 0 .9-1.07 0-1l-2.82.11c-.9 0-.9 1.06 0 1zm-1.41-5.64c.36 0 .71-.23.69-.51a.62.62 0 0 0-.69-.52h-1c-.37 0-.72.23-.7.52a.64.64 0 0 0 .7.51zm.5 3.81c.89 0 .9-1 0-1H9c-.89 0-.89 1.06 0 1zm-1.51-1.77c.84 0 .84-1 0-1s-.84 1 0 1zm0 7.46c.84 0 .84-1 0-1s-.84 1 0 1z" transform="translate(-5 -7)"/><path class="cls-2" d="M26.06 34c.84 0 .84 1 0 1a1.11 1.11 0 0 1-.28 0c-.55-.26-.45-1 .28-1zm-.56 5.41c.56 0 .84.26.84.52s-.28.51-.84.51c-.84 0-.84-1.03 0-1.03zm0-3.64c.84 0 .84 1 0 1s-.84-1 0-1zm-.5-3c0 .29-.33.48-.69.51h-.77a.55.55 0 0 1-.18 0 .62.62 0 0 1-.52-.5c0-.29.34-.49.7-.51h.77a.62.62 0 0 1 .65.51zm-.62 4.81c.42 0 .63.25.63.51a.56.56 0 0 1-.63.52c-.55 0-.83-.26-.83-.52s.28-.51.83-.51z" transform="translate(-5 -7)"/><path class="cls-3" d="M24.29 31.44v.81h-.77c-.36 0-.71.22-.7.51a.62.62 0 0 0 .52.5l-.05.83c-.79 0-.84.89-.15 1l-.07.7H23c-.56 0-.84.26-.84.51h-1c0-.26-.21-.51-.63-.51v-.69c.84 0 .84-1 0-1v-.83h.21c.37 0 .72-.23.7-.51a.63.63 0 0 0-.67-.51v-.8z" transform="translate(-5 -7)"/><path class="cls-2" d="M23.27 34.13c.83 0 .83 1 0 1h-.15c-.69-.13-.64-1 .15-1zm-.22 1.71c.77 0 .75 1-.06 1-.56 0-.84-.26-.84-.52s.28-.51.84-.51zm-.34 3.66c.83 0 .83 1 0 1a.59.59 0 0 1-.63-.42c-.08-.25.16-.58.63-.58z" transform="translate(-5 -7)"/><path class="cls-3" d="M22.71 40.53v1l-2.52.1v-.9c.56 0 .84-.26.84-.52l1-.09a.59.59 0 0 0 .68.41z" transform="translate(-5 -7)"/><path class="cls-2" d="M21.59 37.64c.56 0 .84.26.84.52s-.28.51-.84.51a.59.59 0 0 1-.63-.42c-.05-.25.16-.61.63-.61zm-.24-4.81c0 .28-.33.5-.7.51h-.88a.65.65 0 0 1-.7-.52c0-.28.33-.5.7-.51h.88a.63.63 0 0 1 .7.52zm-.88 1.34c.84 0 .84 1 0 1s-.84-1 0-1zm0 1.71c.42 0 .63.25.63.51s-.21.51-.63.51c-1.12 0-1.12-1.02 0-1.02zm-.28 3.81c.56 0 .84.26.84.51s-.28.52-.84.52-.81-.68-.38-.93a.74.74 0 0 1 .38-.1zM20 38.32c.06.28-.15.61-.62.61-1.12 0-1.12-1 0-1a.58.58 0 0 1 .62.39zM18.23 36c.84 0 .84 1 0 1-1.11 0-1.11-1 0-1zM18 32.89c0 .28-.33.51-.7.51h-.7a.64.64 0 0 1-.7-.51c0-.28.33-.51.7-.51h.67a.64.64 0 0 1 .73.51zm-.32 1.39c.83 0 .83 1 0 1s-.84-1 0-1zm0 5.48c.83 0 .83 1 0 1s-.84-1 0-1zm.03 2.57c0 .28-.34.51-.7.51h-.74a.62.62 0 0 1-.69-.51c0-.28.33-.51.69-.51H17a.64.64 0 0 1 .71.51zM16.84 38c.84 0 .84 1 0 1s-.84-1 0-1zm-1.12-1.95c.84 0 .84 1 0 1s-.84-1 0-1zm-.56 3.75c.84 0 .84 1 0 1s-.84-1 0-1zm-.56-5.48c1.12 0 1.12 1 0 1-.84.03-.84-1 0-1zm.14-1.32c0 .29-.33.51-.7.52h-.79a.63.63 0 0 1-.7-.51c0-.29.33-.5.7-.51h.79a.65.65 0 0 1 .7.5zm-.42 5c.84 0 .84 1 0 1s-.84-1 0-1zM14 41.81c.84 0 .84 1 0 1s-.8-1 0-1zm-.52-5.72c.84 0 .84 1 0 1s-.83-1 0-1zm-.82 3.97c.9-.06.89 1 0 1-1.25.08-2.5.13-3.76.13-.9 0-.9-1 0-1 1.26 0 2.51-.05 3.76-.13zm-.85-5.67c.84 0 .84 1 0 1s-.81-1 0-1zm0 7.55c.84 0 .84 1 0 1s-.81-1 0-1zm-.06-3.76c.9 0 .89 1 0 1l-2.82.12c-.9 0-.9-1 0-1zM11 33.05c0 .28-.33.5-.69.51h-1a.64.64 0 0 1-.7-.51c0-.29.33-.51.7-.52h1a.62.62 0 0 1 .69.52zm-.16 3.3c.9 0 .89 1 0 1L9 37.43c-.89 0-.89-1 0-1zM9.29 34.6c.84 0 .84 1 0 1s-.84-1 0-1zm0 7.47c.84 0 .84 1 0 1s-.84-1 0-1z" transform="translate(-5 -7)"/></g><g class="cls-1"><path class="cls-4" d="M15.23 21.06l2.22-.44.43 2.8-2.65-.19v-2.17z"/></g><path class="cls-4" d="M16.23 21.06l2.22-.44.43 2.8-2.65-.19v-2.17z"/><g class="cls-1"><path class="cls-4" d="M20.12 20.62l.57 2.74 2.54-.57-.42-1.58-2.69-.59z"/></g><path class="cls-4" d="M21.12 20.62l.57 2.74 2.54-.57-.42-1.58-2.69-.59z"/><g class="cls-1"><path class="cls-4" d="M27.23 21.93h-2.22l.36 1.33-.36-2.64h2.22"/></g><path class="cls-4" d="M28.23 21.93h-2.22l.36 1.33-.36-2.64h2.22"/><g class="cls-1"><path class="cls-4" d="M25.45 23.23h1.78"/></g><path class="cls-4" d="M26.45 23.23h1.78"/><g class="cls-1"><path class="cls-4" d="M13.23 21.06h-2.89v2.38h2.31"/></g><path class="cls-4" d="M14.23 21.06h-2.89v2.38h2.31"/></svg>