<svg id="Layer_1" data-name="Layer 1" xmlns="http://www.w3.org/2000/svg" viewBox="0 0 88.79 87.53"><defs><style>.cls-1{opacity:.2}.cls-2{fill:#fff}.cls-3{fill:#231f20}.cls-4{fill:none;stroke:#000;stroke-miterlimit:10}</style></defs><title>zoecodelogo</title><g id="_Group_" data-name="&lt;Group&gt;"><g class="cls-1"><path d="M96.86 109a1.2 1.2 0 1 0 0-2.37 1.2 1.2 0 1 0 0 2.37zm0-17.1c1.89 0 1.89-2.36 0-2.36a1.2 1.2 0 1 0 0 2.36zm1.89 12.1a1.2 1.2 0 1 0 0-2.37 1.2 1.2 0 1 0 0 2.37zm-8.18-11.75a1.2 1.2 0 1 0 0-2.37 1.2 1.2 0 1 0 0 2.37zm1.23-5.35a1.45 1.45 0 0 0 1.57 1.18c.85 0 1.69-.11 2.53-.21s1.34-.87 1.1-1.45a1.73 1.73 0 0 0-1.93-.83l-1.7.12c-.82.03-1.61.53-1.57 1.19zm1.29 17.22c1.89 0 1.89-2.36 0-2.36-2.52 0-2.52 2.36 0 2.36zM95 97.59c-1.89 0-1.89 2.36 0 2.36a1.2 1.2 0 1 0 0-2.36zM93.72 96a1.2 1.2 0 1 0 0-2.36c-1.89.02-1.89 2.36 0 2.36zm-11.32.55a1.2 1.2 0 1 0 0-2.36c-2.52.02-2.52 2.38 0 2.38zm1.25-6.44a1.2 1.2 0 1 0 0 2.37c2.52.02 2.52-2.35 0-2.35zm0 10.42a1.2 1.2 0 1 0 0-2.37 1.2 1.2 0 1 0 0 2.39zm1.27-13.43a1.43 1.43 0 0 0 1.57 1.19l1.66-.13a2.09 2.09 0 0 0 1.11-.35 1.08 1.08 0 0 0 .46-.84 1.44 1.44 0 0 0-1.57-1.18l-1.66.13a2 2 0 0 0-1.11.35 1.06 1.06 0 0 0-.46.85zm3.14 9.25a1.2 1.2 0 1 0 0-2.36c-1.89.01-1.89 2.38 0 2.38zm.28 10.46c-2 0-2 2.36 0 2.36 1 0 2.08 0 3.12-.12.84-.08 1.57-.49 1.57-1.18a1.43 1.43 0 0 0-1.57-1.19c-1.04.11-2.07.15-3.12.15zm-1.54-2.26c1.89 0 1.89-2.36 0-2.36s-1.89 2.38 0 2.38zM89.31 98a1.2 1.2 0 1 0 0 2.37 1.2 1.2 0 1 0 0-2.37zm-13.2 7c2.51 0 2.51-2.36 0-2.36-1.89.02-1.89 2.36 0 2.36zm5-2.61c-1.89 0-1.89 2.36 0 2.36 2.54.02 2.54-2.34.03-2.34zm-11.32 2.81a1.2 1.2 0 1 0 0-2.36c-1.86.02-1.86 2.38.03 2.38zm43.39 3.43a1.2 1.2 0 1 0 0-2.37c-2.48.02-2.48 2.39.03 2.39zm-5.66 0c2.52 0 2.52-2.37 0-2.37a1.2 1.2 0 1 0 .03 2.39zm1-17l2.84-.1c.85 0 1.57-.52 1.57-1.18a1.43 1.43 0 0 0-1.57-1.18l-2.84.09c-.85 0-1.58.53-1.58 1.19a1.44 1.44 0 0 0 1.58 1.16zm4.28-5.37a1.43 1.43 0 0 0-1.57-1.18c-1 0-1.9.08-2.85.16s-1.57.49-1.57 1.18a1.42 1.42 0 0 0 1.57 1.18c1-.08 1.9-.13 2.85-.16s1.57-.54 1.57-1.2zm-2.1 12.91c2 0 2-2.39 0-2.37h-4.43c-2 0-2 2.39 0 2.37zm0-3.72a1.2 1.2 0 1 0 0-2.37 1.2 1.2 0 1 0 0 2.35zm-11.32.4a1.2 1.2 0 1 0 0-2.37 1.2 1.2 0 1 0 0 2.35zm1.26 3.87a1.2 1.2 0 1 0 0-2.36c-1.89-.02-1.89 2.34 0 2.34zM80.55 84.14l33.63-.76q1.78 13.62 2.6 27.3-27 1-54.09 1.77l-.07-2.26 20.1-.84c2-.08 2-2.45 0-2.36l-18.47.76-.09-2.08c2.51 0 2.51-2.37 0-2.37a1.59 1.59 0 0 0-.86.22l-1-2c1.06 0 1.53-.75 1.4-1.4l2.2-.12a1.3 1.3 0 0 0 1.4 1c1.26 0 1.89-.59 1.89-1.18l2.52-.14c0 .59.63 1.18 1.88 1.18A1.25 1.25 0 0 0 75 99.62l2.2-.1a1.25 1.25 0 0 0 1.41 1.18 1.2 1.2 0 1 0 0-2.37 1.52 1.52 0 0 0-1.06.37l-1.45-2.08a1.2 1.2 0 1 0 0-2.36l.63-1.91a1.92 1.92 0 0 0 .62.1 1.2 1.2 0 1 0 0-2.37l.51-1.64a1.54 1.54 0 0 0 .69.1l1.92-.15c.81-.07 1.61-.5 1.57-1.18A1.44 1.44 0 0 0 80.59 86zm23.87 17.24c-2 .12-2 2.48 0 2.36q3.47-.21 6.94-.22c2 0 2-2.36 0-2.36q-3.48.02-6.94.22zm-1.9-9.63c2.52 0 2.52-2.36 0-2.36a1.2 1.2 0 1 0 0 2.36zm2-5.15c0-.67-.7-1.15-1.58-1.18a14.13 14.13 0 0 0-1.72 0c-.81.06-1.61.5-1.57 1.18a1.42 1.42 0 0 0 1.57 1.18 16.48 16.48 0 0 1 1.72 0c.78.03 1.56-.57 1.53-1.18zm-2 22.3a1.2 1.2 0 1 0 0-2.37 1.2 1.2 0 1 0 0 2.37zM105 93.21a1.2 1.2 0 1 0 0 2.37 1.2 1.2 0 1 0 0-2.37z" transform="translate(-32.22 -28)"/><path d="M70.45 96.77a1.2 1.2 0 1 0 0-2.36c-2.52 0-2.52 2.36 0 2.36zm.63-3.93a1.2 1.2 0 1 0 0-2.36c-1.89 0-1.89 2.36 0 2.36zm-1-5.41a1.43 1.43 0 0 0 1.57 1.18l1.72-.09c.82 0 1.61-.51 1.57-1.18a1.43 1.43 0 0 0-1.57-1.19l-1.72.1c-.86.05-1.65.51-1.65 1.18zM58.5 105.81a1.2 1.2 0 1 0 0-2.36c-1.89 0-1.89 2.36 0 2.36zm0-12.62a1.2 1.2 0 1 0 0-2.36c-1.89 0-1.89 2.36 0 2.36zm1.25 3.88a1.2 1.2 0 1 0 0-2.37c-2.51 0-2.51 2.37 0 2.37zm1.89-9.52a1.44 1.44 0 0 0 1.57 1.18l2-.06c.82 0 1.61-.53 1.57-1.18a1.44 1.44 0 0 0-1.57-1.18l-2 .06c-.82.02-1.61.52-1.57 1.18zm3.15 7c-2.52 0-2.52 2.36 0 2.36a1.2 1.2 0 1 0 0-2.4zm0-1.57a1.2 1.2 0 1 0 0-2.36c-1.89-.04-1.89 2.32 0 2.32zm-13.21.35c2.51 0 2.51-2.36 0-2.36-1.89-.04-1.89 2.32 0 2.32zm-.63 8.5c1.89 0 1.89-2.36 0-2.36s-1.89 2.32.05 2.32zm1.89 4.12a1.2 1.2 0 1 0 0-2.36c-1.84-.04-1.84 2.32 0 2.32zm2.5 4.64H57c.82 0 1.61-.54 1.57-1.18a1.44 1.44 0 0 0-1.57-1.22h-1.66c-.82 0-1.61.54-1.57 1.18a1.44 1.44 0 0 0 1.57 1.18zm-1.25-13.32a1.2 1.2 0 1 0 0-2.37 1.2 1.2 0 1 0 0 2.37zm2-8.46h1.52c.82 0 1.61-.54 1.57-1.18a1.44 1.44 0 0 0-1.57-1.18h-1.54c-.82 0-1.61.54-1.57 1.18a1.44 1.44 0 0 0 1.57 1.18zm.54 12.88c1.89 0 1.89-2.36 0-2.36s-1.91 2.36-.02 2.36zM45.29 91.08c-1.89 0-1.89 2.36 0 2.36s1.89-2.36 0-2.36zm0 19.75c1.89 0 1.89-2.36 0-2.36s-1.89 2.36 0 2.36zm5-24.23l-1.79.06c-.82 0-1.61.52-1.57 1.18a1.43 1.43 0 0 0 1.6 1.16h1.79c.82 0 1.61-.52 1.57-1.18a1.44 1.44 0 0 0-1.57-1.22zm0 21.57a1.2 1.2 0 1 0 0 2.37 1.2 1.2 0 1 0 .03-2.37zM49.06 95a1.2 1.2 0 1 0 0 2.37 1.2 1.2 0 1 0 0-2.37zm-13.69-9.85l45.18-1v1.88h-.11l-1.92.15c-.82.07-1.61.5-1.57 1.19a1.35 1.35 0 0 0 .88 1.08l-.51 1.64c-1.64 0-1.85 1.81-.62 2.27l-.63 1.91c-1.89 0-1.89 2.36 0 2.36l1.45 2.08a1.14 1.14 0 0 0-.35.82l-2.2.1a1.26 1.26 0 0 0-1.42-1.19c-1.25 0-1.88.59-1.88 1.19l-2.52.14c0-.59-.63-1.18-1.89-1.18-1.06 0-1.53.75-1.4 1.4l-2.23.16a1.3 1.3 0 0 0-1.4-1c-2.52 0-2.52 2.36 0 2.36l1 2c-1 .59-.68 2.15.86 2.15l.09 2.08-1.63.07c-2 .09-2 2.45 0 2.37l.07 2.26q-13.2.38-26.4.7-.89-13.99-.85-27.99zM38.16 88a1.44 1.44 0 0 0 1.57 1.18h2.25c.82 0 1.61-.53 1.57-1.18A1.43 1.43 0 0 0 42 86.81h-2.25c-.84.07-1.63.58-1.59 1.19zm1.47 23.09a1.2 1.2 0 1 0 0-2.36c-1.89.04-1.89 2.4 0 2.4zm0-19.56a1.2 1.2 0 1 0 0 2.37 1.2 1.2 0 1 0 0-2.33zm-.82 10.87l6.35-.27c2-.09 2-2.46 0-2.36l-6.35.27c-2.02.11-2.03 2.47 0 2.4zm8.4 1.71q-4.23.28-8.47.3c-2 0-2 2.36 0 2.36q4.24 0 8.47-.3c2-.09 2.02-2.47 0-2.32zM39 95.72c-2 .07-2 2.43 0 2.37l4.11-.09c2-.06 2-2.43 0-2.36zm74.21 10.56a1.2 1.2 0 1 1 0 2.37c-2.51 0-2.51-2.37 0-2.37zm-1.85-17.13a1.43 1.43 0 0 1 1.57 1.18c0 .66-.72 1.16-1.57 1.18l-2.84.1a1.44 1.44 0 0 1-1.58-1.18c0-.66.73-1.16 1.58-1.19zm-.66 3.91a1.2 1.2 0 1 1 0 2.37 1.2 1.2 0 1 1 0-2.37zm.53-8a1.43 1.43 0 0 1 1.57 1.18c0 .66-.72 1.15-1.57 1.18s-1.9.08-2.85.16a1.42 1.42 0 0 1-1.57-1.18c0-.69.73-1.11 1.57-1.18s1.9-.13 2.85-.16z" transform="translate(-32.22 -28)"/><path d="M78.78 0l-78 55 8-55h70z"/><path d="M107.55 106.28c2.52 0 2.52 2.37 0 2.37a1.2 1.2 0 1 1 0-2.37zm-3.13-4.9q3.47-.21 6.94-.22c2 0 2 2.36 0 2.36q-3.48 0-6.94.22c-2.02.12-2.01-2.24 0-2.36zm.58-8.17a1.2 1.2 0 1 1 0 2.37 1.2 1.2 0 1 1 0-2.37zm5.7 3.57c2 0 2 2.34 0 2.37h-4.43c-2 0-2-2.34 0-2.37zm-8.18-7.39c2.52 0 2.52 2.36 0 2.36a1.2 1.2 0 1 1 0-2.36zm0 17.14a1.2 1.2 0 1 1 0 2.37 1.2 1.2 0 1 1 0-2.37zm-1.88-9.19a1.2 1.2 0 1 1 0 2.36c-1.89 0-1.89-2.36 0-2.36zm2.25-11.92c.88 0 1.54.51 1.58 1.18s-.75 1.21-1.58 1.18a16.48 16.48 0 0 0-1.72 0 1.42 1.42 0 0 1-1.57-1.18c0-.68.76-1.12 1.57-1.18a14.13 14.13 0 0 1 1.72 0zm-3.51 8.04a1.2 1.2 0 1 1 0 2.37 1.2 1.2 0 1 1 0-2.37zm-.63 8.15a1.2 1.2 0 1 1 0 2.37 1.2 1.2 0 1 1 0-2.37zm-1.89-12.07c1.89 0 1.89 2.36 0 2.36a1.2 1.2 0 1 1 0-2.36zm0 17.09a1.2 1.2 0 1 1 0 2.37 1.2 1.2 0 1 1 0-2.37zM95 97.59a1.2 1.2 0 1 1 0 2.41c-1.91 0-1.91-2.41 0-2.41zm.9-9.72c-.84.1-1.68.18-2.53.21a1.45 1.45 0 0 1-1.57-1.18c0-.66.75-1.16 1.57-1.19l1.7-.12a1.73 1.73 0 0 1 1.93.83c.24.58-.28 1.35-1.1 1.45zm-2.18 5.79a1.2 1.2 0 1 1 0 2.36c-1.89-.02-1.89-2.36 0-2.36zm-.63 8.1c1.89 0 1.89 2.36 0 2.36-2.52 0-2.52-2.36 0-2.36zm-2.52-11.88a1.2 1.2 0 1 1 0 2.37 1.2 1.2 0 1 1 0-2.37zM89.31 98a1.2 1.2 0 1 1 0 2.37 1.2 1.2 0 1 1 0-2.37zm.41-11a1.08 1.08 0 0 1-.46.84 2.09 2.09 0 0 1-1.11.35l-1.66.13a1.43 1.43 0 0 1-1.57-1.19 1.06 1.06 0 0 1 .46-.83 2 2 0 0 1 1.11-.35l1.66-.13A1.44 1.44 0 0 1 89.72 87zm-1.66 7a1.2 1.2 0 1 1 0 2.36c-1.89.01-1.89-2.36 0-2.36zm3.4 15.07c-1 .08-2.07.13-3.12.12-2 0-2-2.37 0-2.36 1 0 2.08 0 3.12-.13a1.43 1.43 0 0 1 1.54 1.19c0 .69-.7 1.11-1.54 1.18zm-4.66-6.86c1.89 0 1.89 2.36 0 2.36s-1.89-2.36 0-2.36zm-3.15-4.03a1.2 1.2 0 1 1 0 2.37 1.2 1.2 0 1 1 0-2.37zm0-8.05c2.52 0 2.52 2.37 0 2.37a1.2 1.2 0 1 1 0-2.37zm-1.25 4.08a1.2 1.2 0 1 1 0 2.36c-2.52 0-2.52-2.36 0-2.36zm-1.26 8.2c2.51 0 2.51 2.36 0 2.36-1.89 0-1.89-2.36 0-2.36zm1.58 6.94l-20.1.84c-2 .08-2-2.28 0-2.37l1.63-.07 18.47-.75c2.02-.1 2.01 2.27 0 2.35zm-.67-22.14c0 .68-.76 1.11-1.57 1.18l-1.92.15a1.54 1.54 0 0 1-.69-.1 1.35 1.35 0 0 1-.87-1.08c0-.69.75-1.12 1.57-1.19l1.91-.17h.11a1.44 1.44 0 0 1 1.46 1.21zm-3.43 11.12a1.2 1.2 0 1 1 0 2.37 1.25 1.25 0 0 1-1.41-1.18 1.14 1.14 0 0 1 .35-.82 1.52 1.52 0 0 1 1.06-.37zm-1.26-8.25a1.2 1.2 0 1 1 0 2.37 1.92 1.92 0 0 1-.62-.1c-1.23-.46-1.02-2.27.62-2.27zm-1.25 12.58c2.51 0 2.51 2.36 0 2.36-1.89-.02-1.89-2.36 0-2.36zm0-8.4a1.2 1.2 0 1 1 0 2.36c-1.89 0-1.89-2.36 0-2.36zm-2.52 4.17a1.2 1.2 0 1 1 0 2.37c-1.25 0-1.88-.59-1.88-1.18s.63-1.19 1.88-1.19zm1.31-11.09c0 .67-.75 1.13-1.57 1.18l-1.72.09A1.43 1.43 0 0 1 70 87.43c0-.67.75-1.13 1.57-1.18l1.72-.1a1.43 1.43 0 0 1 1.61 1.19zm-3.82 3.14a1.2 1.2 0 1 1 0 2.36c-1.89 0-1.89-2.36 0-2.36zm-.63 3.93a1.2 1.2 0 1 1 0 2.36c-2.52 0-2.52-2.36 0-2.36zm-.63 8.45a1.2 1.2 0 1 1 0 2.36c-1.89 0-1.89-2.36 0-2.36zm-2.52-4.28c1.26 0 1.89.59 1.89 1.18s-.63 1.18-1.89 1.18a1.3 1.3 0 0 1-1.4-1c-.13-.61.34-1.36 1.4-1.36zm-.53-11.09c0 .65-.75 1.16-1.57 1.18l-2 .06a1.44 1.44 0 0 1-1.57-1.18c0-.66.75-1.16 1.57-1.18l2-.06a1.44 1.44 0 0 1 1.57 1.18zm-1.98 7.02a1.2 1.2 0 1 1 0 2.36c-2.52 0-2.52-2.36 0-2.36zm-.63 8.79c2.51 0 2.51 2.37 0 2.37-1.54 0-1.82-1.56-.86-2.15a1.59 1.59 0 0 1 .86-.22zm.63-12.72a1.2 1.2 0 1 1 0 2.36c-1.89 0-1.89-2.36 0-2.36zm-1.12 9.56c.13.65-.34 1.4-1.4 1.4-2.52 0-2.52-2.36 0-2.36a1.3 1.3 0 0 1 1.4.96zm-3.92-5.44a1.2 1.2 0 1 1 0 2.37c-2.51 0-2.51-2.37 0-2.37zm-1.25 8.75a1.2 1.2 0 1 1 0 2.36c-1.89 0-1.89-2.36 0-2.36zm0-12.62a1.2 1.2 0 1 1 0 2.36c-1.89 0-1.89-2.36 0-2.36zm.66-3.2c0 .64-.75 1.18-1.57 1.18h-1.52a1.44 1.44 0 0 1-1.57-1.18c0-.64.75-1.18 1.57-1.18h1.52a1.44 1.44 0 0 1 1.57 1.18zm-.59 21.74c0 .64-.75 1.18-1.57 1.18h-1.66a1.44 1.44 0 0 1-1.57-1.18c0-.64.75-1.18 1.57-1.18H57a1.44 1.44 0 0 1 1.57 1.18zm-1.96-10.04c1.89 0 1.89 2.36 0 2.36s-1.89-2.36 0-2.36zm-2.52-4.43a1.2 1.2 0 1 1 0 2.37 1.2 1.2 0 1 1 0-2.37zm-1.25 8.65a1.2 1.2 0 1 1 0 2.36c-1.84 0-1.84-2.36 0-2.36zM51 99.43c1.89 0 1.89 2.36 0 2.36s-1.94-2.36 0-2.36zm.58-8.5c2.51 0 2.51 2.36 0 2.36-1.89 0-1.89-2.36 0-2.36zm.31-3.15c0 .66-.75 1.16-1.57 1.18l-1.79.04A1.43 1.43 0 0 1 47 87.84c0-.66.75-1.15 1.57-1.18l1.79-.06a1.44 1.44 0 0 1 1.53 1.18zm-1.57 20.39a1.2 1.2 0 1 1 0 2.37 1.2 1.2 0 1 1 0-2.37zM49.06 95a1.2 1.2 0 1 1 0 2.37 1.2 1.2 0 1 1 0-2.37zm-1.85 9.15c2-.14 2 2.23 0 2.36q-4.23.3-8.47.3c-2 0-2-2.36 0-2.36q4.26-.01 8.47-.3zm-1.92 4.32c1.89 0 1.89 2.36 0 2.36s-1.89-2.36 0-2.36zm0-17.39c1.89 0 1.89 2.36 0 2.36s-1.89-2.36 0-2.36zm-.13 11.09l-6.35.27c-2 .07-2-2.29 0-2.36l6.35-.27c2.02-.1 2.01 2.27 0 2.36zM43.55 88c0 .65-.75 1.16-1.57 1.18h-2.25A1.44 1.44 0 0 1 38.16 88c0-.65.75-1.16 1.57-1.18h2.25A1.43 1.43 0 0 1 43.55 88zm-.44 7.6c2-.07 2 2.3 0 2.36l-4.11.13c-2 .06-2-2.3 0-2.37zm-3.48-4.03a1.2 1.2 0 1 1 0 2.37 1.2 1.2 0 1 1 0-2.37zm0 17.2a1.2 1.2 0 1 1 0 2.36c-1.89 0-1.89-2.36 0-2.36z" transform="translate(-32.22 -28)"/><path d="M36.29 113.15q13.2-.32 26.4-.7 27-.77 54.09-1.77-.78-13.68-2.6-27.3l-33.63.76-45.18 1q-.04 14.02.92 28.01zm81.28-.14q-40.86 1.53-81.74 2.52a1.51 1.51 0 0 1-1.31-.54c-.67-.09-1.28-.46-1.32-1.11q-1.05-14.52-1-29.08a1.06 1.06 0 0 1 .72-1 1.41 1.41 0 0 1 1.5-1L114.8 81a1.5 1.5 0 0 1 1.29.51 1.34 1.34 0 0 1 1.13 1q1.95 14.58 2.78 29.23c0 .86-1 1.23-1.83 1.11a2.14 2.14 0 0 1-.6.15z" transform="translate(-32.22 -28)"/></g><path class="cls-2" d="M97.86 109a1.2 1.2 0 1 0 0-2.37 1.2 1.2 0 1 0 0 2.37zm0-17.1c1.89 0 1.89-2.36 0-2.36a1.2 1.2 0 1 0 0 2.36zm1.89 12.1a1.2 1.2 0 1 0 0-2.37 1.2 1.2 0 1 0 0 2.37zm-8.18-11.75a1.2 1.2 0 1 0 0-2.37 1.2 1.2 0 1 0 0 2.37zm1.23-5.35a1.45 1.45 0 0 0 1.57 1.18c.85 0 1.69-.11 2.53-.21s1.34-.87 1.1-1.45a1.73 1.73 0 0 0-1.93-.83l-1.7.12c-.82.03-1.61.53-1.57 1.19zm1.29 17.22c1.89 0 1.89-2.36 0-2.36-2.52 0-2.52 2.36 0 2.36zM96 97.59c-1.89 0-1.89 2.36 0 2.36a1.2 1.2 0 1 0 0-2.36zM94.72 96a1.2 1.2 0 1 0 0-2.36c-1.89.02-1.89 2.36 0 2.36zm-11.32.55a1.2 1.2 0 1 0 0-2.36c-2.52.02-2.52 2.38 0 2.38zm1.25-6.44a1.2 1.2 0 1 0 0 2.37c2.52.02 2.52-2.35 0-2.35zm0 10.42a1.2 1.2 0 1 0 0-2.37 1.2 1.2 0 1 0 0 2.39zm1.27-13.43a1.43 1.43 0 0 0 1.57 1.19l1.66-.13a2.09 2.09 0 0 0 1.11-.35 1.08 1.08 0 0 0 .46-.84 1.44 1.44 0 0 0-1.57-1.18l-1.66.13a2 2 0 0 0-1.11.35 1.06 1.06 0 0 0-.46.85zm3.14 9.25a1.2 1.2 0 1 0 0-2.36c-1.89.01-1.89 2.38 0 2.38zm.28 10.46c-2 0-2 2.36 0 2.36 1 0 2.08 0 3.12-.12.84-.08 1.57-.49 1.57-1.18a1.43 1.43 0 0 0-1.57-1.19c-1.04.11-2.07.15-3.12.15zm-1.54-2.26c1.89 0 1.89-2.36 0-2.36s-1.89 2.38 0 2.38zM90.31 98a1.2 1.2 0 1 0 0 2.37 1.2 1.2 0 1 0 0-2.37zm-13.2 7c2.51 0 2.51-2.36 0-2.36-1.89.02-1.89 2.36 0 2.36zm5-2.61c-1.89 0-1.89 2.36 0 2.36 2.54.02 2.54-2.34.03-2.34zm-11.32 2.81a1.2 1.2 0 1 0 0-2.36c-1.86.02-1.86 2.38.03 2.38zm43.39 3.43a1.2 1.2 0 1 0 0-2.37c-2.48.02-2.48 2.39.03 2.39zm-5.66 0c2.52 0 2.52-2.37 0-2.37a1.2 1.2 0 1 0 .03 2.39zm1-17l2.84-.1c.85 0 1.57-.52 1.57-1.18a1.43 1.43 0 0 0-1.57-1.18l-2.84.09c-.85 0-1.58.53-1.58 1.19a1.44 1.44 0 0 0 1.58 1.16zm4.28-5.37a1.43 1.43 0 0 0-1.57-1.18c-1 0-1.9.08-2.85.16s-1.57.49-1.57 1.18a1.42 1.42 0 0 0 1.57 1.18c1-.08 1.9-.13 2.85-.16s1.57-.54 1.57-1.2zm-2.1 12.91c2 0 2-2.39 0-2.37h-4.43c-2 0-2 2.39 0 2.37zm0-3.72a1.2 1.2 0 1 0 0-2.37 1.2 1.2 0 1 0 0 2.35zm-11.32.4a1.2 1.2 0 1 0 0-2.37 1.2 1.2 0 1 0 0 2.35zm1.26 3.87a1.2 1.2 0 1 0 0-2.36c-1.89-.02-1.89 2.34 0 2.34zM81.55 84.14l33.63-.76q1.78 13.62 2.6 27.3-27 1-54.09 1.77l-.07-2.26 20.1-.84c2-.08 2-2.45 0-2.36l-18.47.76-.09-2.08c2.51 0 2.51-2.37 0-2.37a1.59 1.59 0 0 0-.86.22l-1-2c1.06 0 1.53-.75 1.4-1.4l2.2-.12a1.3 1.3 0 0 0 1.4 1c1.26 0 1.89-.59 1.89-1.18l2.52-.14c0 .59.63 1.18 1.88 1.18A1.25 1.25 0 0 0 76 99.62l2.2-.1a1.25 1.25 0 0 0 1.41 1.18 1.2 1.2 0 1 0 0-2.37 1.52 1.52 0 0 0-1.06.37l-1.45-2.08a1.2 1.2 0 1 0 0-2.36l.63-1.91a1.92 1.92 0 0 0 .62.1 1.2 1.2 0 1 0 0-2.37l.51-1.64a1.54 1.54 0 0 0 .69.1l1.92-.15c.81-.07 1.61-.5 1.57-1.18A1.44 1.44 0 0 0 81.59 86zm23.87 17.24c-2 .12-2 2.48 0 2.36q3.47-.21 6.94-.22c2 0 2-2.36 0-2.36q-3.48.02-6.94.22zm-1.9-9.63c2.52 0 2.52-2.36 0-2.36a1.2 1.2 0 1 0 0 2.36zm2-5.15c0-.67-.7-1.15-1.58-1.18a14.13 14.13 0 0 0-1.72 0c-.81.06-1.61.5-1.57 1.18a1.42 1.42 0 0 0 1.57 1.18 16.48 16.48 0 0 1 1.72 0c.78.03 1.56-.57 1.53-1.18zm-2 22.3a1.2 1.2 0 1 0 0-2.37 1.2 1.2 0 1 0 0 2.37zM106 93.21a1.2 1.2 0 1 0 0 2.37 1.2 1.2 0 1 0 0-2.37z" transform="translate(-32.22 -28)"/><path class="cls-2" d="M71.45 96.77a1.2 1.2 0 1 0 0-2.36c-2.52 0-2.52 2.36 0 2.36zm.63-3.93a1.2 1.2 0 1 0 0-2.36c-1.89 0-1.89 2.36 0 2.36zm-1-5.41a1.43 1.43 0 0 0 1.57 1.18l1.72-.09c.82 0 1.61-.51 1.57-1.18a1.43 1.43 0 0 0-1.57-1.19l-1.72.1c-.86.05-1.65.51-1.65 1.18zM59.5 105.81a1.2 1.2 0 1 0 0-2.36c-1.89 0-1.89 2.36 0 2.36zm0-12.62a1.2 1.2 0 1 0 0-2.36c-1.89 0-1.89 2.36 0 2.36zm1.25 3.88a1.2 1.2 0 1 0 0-2.37c-2.51 0-2.51 2.37 0 2.37zm1.89-9.52a1.44 1.44 0 0 0 1.57 1.18l2-.06c.82 0 1.61-.53 1.57-1.18a1.44 1.44 0 0 0-1.57-1.18l-2 .06c-.82.02-1.61.52-1.57 1.18zm3.15 7c-2.52 0-2.52 2.36 0 2.36a1.2 1.2 0 1 0 0-2.4zm0-1.57a1.2 1.2 0 1 0 0-2.36c-1.89-.04-1.89 2.32 0 2.32zm-13.21.35c2.51 0 2.51-2.36 0-2.36-1.89-.04-1.89 2.32 0 2.32zm-.63 8.5c1.89 0 1.89-2.36 0-2.36s-1.89 2.32.05 2.32zm1.89 4.12a1.2 1.2 0 1 0 0-2.36c-1.84-.04-1.84 2.32 0 2.32zm2.5 4.64H58c.82 0 1.61-.54 1.57-1.18a1.44 1.44 0 0 0-1.57-1.22h-1.66c-.82 0-1.61.54-1.57 1.18a1.44 1.44 0 0 0 1.57 1.18zm-1.25-13.32a1.2 1.2 0 1 0 0-2.37 1.2 1.2 0 1 0 0 2.37zm2-8.46h1.52c.82 0 1.61-.54 1.57-1.18a1.44 1.44 0 0 0-1.57-1.18h-1.54c-.82 0-1.61.54-1.57 1.18a1.44 1.44 0 0 0 1.57 1.18zm.54 12.88c1.89 0 1.89-2.36 0-2.36s-1.91 2.36-.02 2.36zM46.29 91.08c-1.89 0-1.89 2.36 0 2.36s1.89-2.36 0-2.36zm0 19.75c1.89 0 1.89-2.36 0-2.36s-1.89 2.36 0 2.36zm5-24.23l-1.79.06c-.82 0-1.61.52-1.57 1.18a1.43 1.43 0 0 0 1.6 1.16h1.79c.82 0 1.61-.52 1.57-1.18a1.44 1.44 0 0 0-1.57-1.22zm0 21.57a1.2 1.2 0 1 0 0 2.37 1.2 1.2 0 1 0 .03-2.37zM50.06 95a1.2 1.2 0 1 0 0 2.37 1.2 1.2 0 1 0 0-2.37zm-13.69-9.85l45.18-1v1.88h-.11l-1.92.15c-.82.07-1.61.5-1.57 1.19a1.35 1.35 0 0 0 .88 1.08l-.51 1.64c-1.64 0-1.85 1.81-.62 2.27l-.63 1.91c-1.89 0-1.89 2.36 0 2.36l1.45 2.08a1.14 1.14 0 0 0-.35.82l-2.2.1a1.26 1.26 0 0 0-1.42-1.19c-1.25 0-1.88.59-1.88 1.19l-2.52.14c0-.59-.63-1.18-1.89-1.18-1.06 0-1.53.75-1.4 1.4l-2.23.16a1.3 1.3 0 0 0-1.4-1c-2.52 0-2.52 2.36 0 2.36l1 2c-1 .59-.68 2.15.86 2.15l.09 2.08-1.63.07c-2 .09-2 2.45 0 2.37l.07 2.26q-13.2.38-26.4.7-.89-13.99-.85-27.99zM39.16 88a1.44 1.44 0 0 0 1.57 1.18h2.25c.82 0 1.61-.53 1.57-1.18A1.43 1.43 0 0 0 43 86.81h-2.25c-.84.07-1.63.58-1.59 1.19zm1.47 23.09a1.2 1.2 0 1 0 0-2.36c-1.89.04-1.89 2.4 0 2.4zm0-19.56a1.2 1.2 0 1 0 0 2.37 1.2 1.2 0 1 0 0-2.33zm-.82 10.87l6.35-.27c2-.09 2-2.46 0-2.36l-6.35.27c-2.02.11-2.03 2.47 0 2.4zm8.4 1.71q-4.23.28-8.47.3c-2 0-2 2.36 0 2.36q4.24 0 8.47-.3c2-.09 2.02-2.47 0-2.32zM40 95.72c-2 .07-2 2.43 0 2.37l4.11-.09c2-.06 2-2.43 0-2.36z" transform="translate(-32.22 -28)"/><path class="cls-3" d="M114.21 106.28a1.2 1.2 0 1 1 0 2.37c-2.51 0-2.51-2.37 0-2.37zm-1.85-17.13a1.43 1.43 0 0 1 1.57 1.18c0 .66-.72 1.16-1.57 1.18l-2.84.1a1.44 1.44 0 0 1-1.58-1.18c0-.66.73-1.16 1.58-1.19zm-.66 3.91a1.2 1.2 0 1 1 0 2.37 1.2 1.2 0 1 1 0-2.37zm.53-8a1.43 1.43 0 0 1 1.57 1.18c0 .66-.72 1.15-1.57 1.18s-1.9.08-2.85.16a1.42 1.42 0 0 1-1.57-1.18c0-.69.73-1.11 1.57-1.18s1.9-.13 2.85-.16z" transform="translate(-32.22 -28)"/><path class="cls-3" d="M79.78 0l-78 55 8-55h70z"/><path class="cls-3" d="M108.55 106.28c2.52 0 2.52 2.37 0 2.37a1.2 1.2 0 1 1 0-2.37zm-3.13-4.9q3.47-.21 6.94-.22c2 0 2 2.36 0 2.36q-3.48 0-6.94.22c-2.02.12-2.01-2.24 0-2.36zm.58-8.17a1.2 1.2 0 1 1 0 2.37 1.2 1.2 0 1 1 0-2.37zm5.7 3.57c2 0 2 2.34 0 2.37h-4.43c-2 0-2-2.34 0-2.37zm-8.18-7.39c2.52 0 2.52 2.36 0 2.36a1.2 1.2 0 1 1 0-2.36zm0 17.14a1.2 1.2 0 1 1 0 2.37 1.2 1.2 0 1 1 0-2.37zm-1.88-9.19a1.2 1.2 0 1 1 0 2.36c-1.89 0-1.89-2.36 0-2.36zm2.25-11.92c.88 0 1.54.51 1.58 1.18s-.75 1.21-1.58 1.18a16.48 16.48 0 0 0-1.72 0 1.42 1.42 0 0 1-1.57-1.18c0-.68.76-1.12 1.57-1.18a14.13 14.13 0 0 1 1.72 0zm-3.51 8.04a1.2 1.2 0 1 1 0 2.37 1.2 1.2 0 1 1 0-2.37zm-.63 8.15a1.2 1.2 0 1 1 0 2.37 1.2 1.2 0 1 1 0-2.37zm-1.89-12.07c1.89 0 1.89 2.36 0 2.36a1.2 1.2 0 1 1 0-2.36zm0 17.09a1.2 1.2 0 1 1 0 2.37 1.2 1.2 0 1 1 0-2.37zM96 97.59a1.2 1.2 0 1 1 0 2.41c-1.91 0-1.91-2.41 0-2.41zm.9-9.72c-.84.1-1.68.18-2.53.21a1.45 1.45 0 0 1-1.57-1.18c0-.66.75-1.16 1.57-1.19l1.7-.12a1.73 1.73 0 0 1 1.93.83c.24.58-.28 1.35-1.1 1.45zm-2.18 5.79a1.2 1.2 0 1 1 0 2.36c-1.89-.02-1.89-2.36 0-2.36zm-.63 8.1c1.89 0 1.89 2.36 0 2.36-2.52 0-2.52-2.36 0-2.36zm-2.52-11.88a1.2 1.2 0 1 1 0 2.37 1.2 1.2 0 1 1 0-2.37zM90.31 98a1.2 1.2 0 1 1 0 2.37 1.2 1.2 0 1 1 0-2.37zm.41-11a1.08 1.08 0 0 1-.46.84 2.09 2.09 0 0 1-1.11.35l-1.66.13a1.43 1.43 0 0 1-1.57-1.19 1.06 1.06 0 0 1 .46-.83 2 2 0 0 1 1.11-.35l1.66-.13A1.44 1.44 0 0 1 90.72 87zm-1.66 7a1.2 1.2 0 1 1 0 2.36c-1.89.01-1.89-2.36 0-2.36zm3.4 15.07c-1 .08-2.07.13-3.12.12-2 0-2-2.37 0-2.36 1 0 2.08 0 3.12-.13a1.43 1.43 0 0 1 1.54 1.19c0 .69-.7 1.11-1.54 1.18zm-4.66-6.86c1.89 0 1.89 2.36 0 2.36s-1.89-2.36 0-2.36zm-3.15-4.03a1.2 1.2 0 1 1 0 2.37 1.2 1.2 0 1 1 0-2.37zm0-8.05c2.52 0 2.52 2.37 0 2.37a1.2 1.2 0 1 1 0-2.37zm-1.25 4.08a1.2 1.2 0 1 1 0 2.36c-2.52 0-2.52-2.36 0-2.36zm-1.26 8.2c2.51 0 2.51 2.36 0 2.36-1.89 0-1.89-2.36 0-2.36zm1.58 6.94l-20.1.84c-2 .08-2-2.28 0-2.37l1.63-.07 18.47-.75c2.02-.1 2.01 2.27 0 2.35zm-.67-22.14c0 .68-.76 1.11-1.57 1.18l-1.92.15a1.54 1.54 0 0 1-.69-.1 1.35 1.35 0 0 1-.87-1.08c0-.69.75-1.12 1.57-1.19l1.91-.17h.11a1.44 1.44 0 0 1 1.46 1.21zm-3.43 11.12a1.2 1.2 0 1 1 0 2.37 1.25 1.25 0 0 1-1.41-1.18 1.14 1.14 0 0 1 .35-.82 1.52 1.52 0 0 1 1.06-.37zm-1.26-8.25a1.2 1.2 0 1 1 0 2.37 1.92 1.92 0 0 1-.62-.1c-1.23-.46-1.02-2.27.62-2.27zm-1.25 12.58c2.51 0 2.51 2.36 0 2.36-1.89-.02-1.89-2.36 0-2.36zm0-8.4a1.2 1.2 0 1 1 0 2.36c-1.89 0-1.89-2.36 0-2.36zm-2.52 4.17a1.2 1.2 0 1 1 0 2.37c-1.25 0-1.88-.59-1.88-1.18s.63-1.19 1.88-1.19zm1.31-11.09c0 .67-.75 1.13-1.57 1.18l-1.72.09A1.43 1.43 0 0 1 71 87.43c0-.67.75-1.13 1.57-1.18l1.72-.1a1.43 1.43 0 0 1 1.61 1.19zm-3.82 3.14a1.2 1.2 0 1 1 0 2.36c-1.89 0-1.89-2.36 0-2.36zm-.63 3.93a1.2 1.2 0 1 1 0 2.36c-2.52 0-2.52-2.36 0-2.36zm-.63 8.45a1.2 1.2 0 1 1 0 2.36c-1.89 0-1.89-2.36 0-2.36zm-2.52-4.28c1.26 0 1.89.59 1.89 1.18s-.63 1.18-1.89 1.18a1.3 1.3 0 0 1-1.4-1c-.13-.61.34-1.36 1.4-1.36zm-.53-11.09c0 .65-.75 1.16-1.57 1.18l-2 .06a1.44 1.44 0 0 1-1.57-1.18c0-.66.75-1.16 1.57-1.18l2-.06a1.44 1.44 0 0 1 1.57 1.18zm-1.98 7.02a1.2 1.2 0 1 1 0 2.36c-2.52 0-2.52-2.36 0-2.36zm-.63 8.79c2.51 0 2.51 2.37 0 2.37-1.54 0-1.82-1.56-.86-2.15a1.59 1.59 0 0 1 .86-.22zm.63-12.72a1.2 1.2 0 1 1 0 2.36c-1.89 0-1.89-2.36 0-2.36zm-1.12 9.56c.13.65-.34 1.4-1.4 1.4-2.52 0-2.52-2.36 0-2.36a1.3 1.3 0 0 1 1.4.96zm-3.92-5.44a1.2 1.2 0 1 1 0 2.37c-2.51 0-2.51-2.37 0-2.37zm-1.25 8.75a1.2 1.2 0 1 1 0 2.36c-1.89 0-1.89-2.36 0-2.36zm0-12.62a1.2 1.2 0 1 1 0 2.36c-1.89 0-1.89-2.36 0-2.36zm.66-3.2c0 .64-.75 1.18-1.57 1.18h-1.52a1.44 1.44 0 0 1-1.57-1.18c0-.64.75-1.18 1.57-1.18h1.52a1.44 1.44 0 0 1 1.57 1.18zm-.59 21.74c0 .64-.75 1.18-1.57 1.18h-1.66a1.44 1.44 0 0 1-1.57-1.18c0-.64.75-1.18 1.57-1.18H58a1.44 1.44 0 0 1 1.57 1.18zm-1.96-10.04c1.89 0 1.89 2.36 0 2.36s-1.89-2.36 0-2.36zm-2.52-4.43a1.2 1.2 0 1 1 0 2.37 1.2 1.2 0 1 1 0-2.37zm-1.25 8.65a1.2 1.2 0 1 1 0 2.36c-1.84 0-1.84-2.36 0-2.36zM52 99.43c1.89 0 1.89 2.36 0 2.36s-1.94-2.36 0-2.36zm.58-8.5c2.51 0 2.51 2.36 0 2.36-1.89 0-1.89-2.36 0-2.36zm.31-3.15c0 .66-.75 1.16-1.57 1.18l-1.79.04A1.43 1.43 0 0 1 48 87.84c0-.66.75-1.15 1.57-1.18l1.79-.06a1.44 1.44 0 0 1 1.53 1.18zm-1.57 20.39a1.2 1.2 0 1 1 0 2.37 1.2 1.2 0 1 1 0-2.37zM50.06 95a1.2 1.2 0 1 1 0 2.37 1.2 1.2 0 1 1 0-2.37zm-1.85 9.15c2-.14 2 2.23 0 2.36q-4.23.3-8.47.3c-2 0-2-2.36 0-2.36q4.26-.01 8.47-.3zm-1.92 4.32c1.89 0 1.89 2.36 0 2.36s-1.89-2.36 0-2.36zm0-17.39c1.89 0 1.89 2.36 0 2.36s-1.89-2.36 0-2.36zm-.13 11.09l-6.35.27c-2 .07-2-2.29 0-2.36l6.35-.27c2.02-.1 2.01 2.27 0 2.36zM44.55 88c0 .65-.75 1.16-1.57 1.18h-2.25A1.44 1.44 0 0 1 39.16 88c0-.65.75-1.16 1.57-1.18h2.25A1.43 1.43 0 0 1 44.55 88zm-.44 7.6c2-.07 2 2.3 0 2.36l-4.11.13c-2 .06-2-2.3 0-2.37zm-3.48-4.03a1.2 1.2 0 1 1 0 2.37 1.2 1.2 0 1 1 0-2.37zm0 17.2a1.2 1.2 0 1 1 0 2.36c-1.89 0-1.89-2.36 0-2.36z" transform="translate(-32.22 -28)"/><path class="cls-3" d="M37.29 113.15q13.2-.32 26.4-.7 27-.77 54.09-1.77-.78-13.68-2.6-27.3l-33.63.76-45.18 1q-.04 14.02.92 28.01zm81.28-.14q-40.86 1.53-81.74 2.52a1.51 1.51 0 0 1-1.31-.54c-.67-.09-1.28-.46-1.32-1.11q-1.05-14.52-1-29.08a1.06 1.06 0 0 1 .72-1 1.41 1.41 0 0 1 1.5-1L115.8 81a1.5 1.5 0 0 1 1.29.51 1.34 1.34 0 0 1 1.13 1q1.95 14.58 2.78 29.23c0 .86-1 1.23-1.83 1.11a2.14 2.14 0 0 1-.6.15z" transform="translate(-32.22 -28)"/></g><g class="cls-1"><path class="cls-4" d="M34.28 48.5l5-1 .97 6.45-5.97-.45v-5z"/></g><path class="cls-4" d="M35.28 48.5l5-1 .97 6.45-5.97-.45v-5z"/><g class="cls-1"><path class="cls-4" d="M45.28 47.5l1.28 6.31 5.72-1.31-.93-3.65-6.07-1.35z"/></g><path class="cls-4" d="M46.28 47.5l1.28 6.31 5.72-1.31-.93-3.65-6.07-1.35z"/><g class="cls-1"><path class="cls-4" d="M61.28 50.5h-5l.82 3.07-.82-6.07h5"/></g><path class="cls-4" d="M62.28 50.5h-5l.82 3.07-.82-6.07h5"/><g class="cls-1"><path class="cls-4" d="M57.28 53.5h4"/></g><path class="cls-4" d="M58.28 53.5h4"/><g class="cls-1"><path class="cls-4" d="M29.78 48.5h-6.5V54h5.2"/></g><path class="cls-4" d="M30.78 48.5h-6.5V54h5.2"/></svg>